<?xml version="1.0" encoding="utf-8"?>
<!-- Generator: Adobe Illustrator 27.5.0, SVG Export Plug-In . SVG Version: 6.00 Build 0)  -->
<svg version="1.1" xmlns="http://www.w3.org/2000/svg" xmlns:xlink="http://www.w3.org/1999/xlink" x="0px" y="0px"
	 viewBox="0 0 500 500" style="enable-background:new 0 0 500 500;" xml:space="preserve">
<g id="Background_Simple">
	<g>
		<path style="fill:#92E3A9;" d="M422.918,85.556c-1.676-1.642-3.41-3.241-5.202-4.796c-37.191-32.265-86.566-49.139-134.72-55.959
			c-48.801-6.912-100.56-0.652-142.604,26.49c-4.689,3.027-9.227,6.287-13.592,9.763C91.757,88.958,75.071,128.04,70.479,171.916
			c-3.51,33.536-20.155,59.798-31.586,90.784c-12.437,33.714-12.283,75.169,4.111,107.602c19.464,38.505,58.334,58.192,97.91,70.167
			c66.839,20.223,141.732,20.158,206.85-6.35c45.14-18.375,91.036-49.95,109.571-96.698c16.559-41.764,17.345-88.666,11.926-132.719
			C463.993,161.861,454.958,116.933,422.918,85.556z"/>
		<path style="opacity:0.7;fill:#FFFFFF;" d="M422.918,85.556c-1.676-1.642-3.41-3.241-5.202-4.796
			c-37.191-32.265-86.566-49.139-134.72-55.959c-48.801-6.912-100.56-0.652-142.604,26.49c-4.689,3.027-9.227,6.287-13.592,9.763
			C91.757,88.958,75.071,128.04,70.479,171.916c-3.51,33.536-20.155,59.798-31.586,90.784
			c-12.437,33.714-12.283,75.169,4.111,107.602c19.464,38.505,58.334,58.192,97.91,70.167c66.839,20.223,141.732,20.158,206.85-6.35
			c45.14-18.375,91.036-49.95,109.571-96.698c16.559-41.764,17.345-88.666,11.926-132.719
			C463.993,161.861,454.958,116.933,422.918,85.556z"/>
	</g>
</g>
<g id="Pictures_2">
	<g>
		
			<rect x="311.92" y="37.474" style="fill:none;stroke:#263238;stroke-linecap:round;stroke-linejoin:round;stroke-miterlimit:10;" width="123.457" height="179.292"/>
		
			<rect x="321.956" y="52.049" style="fill:none;stroke:#263238;stroke-linecap:round;stroke-linejoin:round;stroke-miterlimit:10;" width="103.385" height="150.143"/>
		
			<rect x="346.18" y="87.229" style="fill:none;stroke:#263238;stroke-linecap:round;stroke-linejoin:round;stroke-miterlimit:10;" width="54.936" height="79.782"/>
	</g>
	<g>
		
			<rect x="226.124" y="37.474" style="fill:none;stroke:#263238;stroke-linecap:round;stroke-linejoin:round;stroke-miterlimit:10;" width="72.186" height="93.055"/>
		
			<rect x="231.992" y="45.039" style="fill:none;stroke:#263238;stroke-linecap:round;stroke-linejoin:round;stroke-miterlimit:10;" width="60.45" height="77.926"/>
		
			<rect x="246.156" y="63.298" style="fill:none;stroke:#263238;stroke-linecap:round;stroke-linejoin:round;stroke-miterlimit:10;" width="32.122" height="41.408"/>
	</g>
</g>
<g id="Cat">
	<g>
		<path style="fill:#92E3A9;stroke:#263238;stroke-linecap:round;stroke-linejoin:round;stroke-miterlimit:10;" d="M159.02,138.315
			c0,0-20.719-14.742-23.508-33.07c-2.789-18.328,1.594-43.828-8.367-57.375s-46.44-14.916-48.609,6.773
			c-1.594,15.937,16.734,11.953,26.297,8.367c9.562-3.586,12.75,8.766,11.953,34.664c-0.797,25.898,15.937,53.789,32.672,59.765
			C166.191,163.417,159.02,138.315,159.02,138.315z"/>
		<g>
			<path style="fill:#FFFFFF;stroke:#263238;stroke-linecap:round;stroke-linejoin:round;stroke-miterlimit:10;" d="
				M181.914,226.882c0,0,3.848,8.551,10.048,13.468c6.2,4.917,10.048,4.917,10.048,4.917s-1.069,6.627,1.069,9.834
				c2.138,3.207,17.102,26.081,19.454,28.005c2.352,1.924,8.124,1.71,12.185,1.496c4.062-0.214,5.131-2.352,2.779-6.413
				c-2.352-4.062-8.551-5.344-8.551-5.344s-2.352-7.91-0.214-15.606c2.138-7.696,4.489-11.971,10.261-14.323
				c5.772-2.351,28.86-2.138,30.356-0.214c1.496,1.924,6.2,9.193,16.888,12.185c10.689,2.993,16.675,1.496,19.881,4.489
				c3.207,2.993,2.565,9.62,7.482,10.261c4.917,0.641,7.696-2.993,6.199-9.406c-1.496-6.413-5.772-10.048-11.544-16.033
				c-5.772-5.986-14.323-13.468-16.889-20.095c-2.565-6.627-11.971-30.784-18.812-45.535c-6.841-14.751-13.895-40.618-44.038-54.086
				s-66.271,1.924-76.96,18.599c-10.689,16.675-14.964,36.128-9.834,59.003c5.131,22.874,11.33,20.95,11.758,33.99
				c0.428,13.04,0.214,22.447,7.482,33.563c7.268,11.116,10.903,13.468,14.323,13.896c3.42,0.428,8.551,0.855,9.192-1.71
				c0.641-2.565,0.428-7.055-2.138-8.765c-2.565-1.71-5.344,0.214-7.696-3.42c-2.352-3.634-5.345-19.24-1.069-24.798
				C177.852,239.281,181.486,235.86,181.914,226.882z"/>
			<path style="fill:#92E3A9;" d="M212.27,180.92c0,0-18.171,14.964-20.095,36.342c-1.924,21.378,6.199,13.682,9.62,11.544
				c3.42-2.138,2.565,4.062,2.565,4.062s-2.352,8.551-2.352,12.399c0,3.848,1.924,8.765,5.772,6.841
				c3.848-1.924-2.138-5.344,5.344-16.247c7.482-10.903,7.268-6.627,22.66-21.164c15.392-14.537,5.772-36.342-1.71-36.128
				c-7.482,0.214-14.109,7.696-14.323,3.634C219.538,178.141,215.904,178.996,212.27,180.92z"/>
			<path style="fill:#92E3A9;" d="M165.99,129.885c-6.367,3.883-11.415,8.488-14.433,13.196
				c-10.689,16.675-14.964,36.128-9.834,59.003c1.619,7.22,3.345,11.966,4.962,15.495c3.4,6.16,6.648,9.081,8.506,11.868
				c3.42,5.131,11.116,5.772,11.758-6.413c0.641-12.185-16.675-40.831-13.04-68.195C155.531,142.626,160.73,134.808,165.99,129.885z
				"/>
			<path style="fill:#92E3A9;" d="M269.009,170.372c-6.29-14.836-15.372-34.666-40.492-45.89c-8.177-3.653-16.793-5.17-25.224-5.126
				c-10.229,1.583-24.156,6.755-35.275,22.014c-20.095,27.577,2.565,72.684,10.689,76.532c8.124,3.848,8.337-0.641,10.475-21.164
				c2.138-20.523,31.211-40.404,38.907-38.907c7.696,1.496-8.979,7.91-8.765,13.04c0.214,5.131,1.496,3.634,19.026-1.924
				C252.7,164.398,263.894,168.156,269.009,170.372z"/>
			<path style="fill:none;stroke:#263238;stroke-linecap:round;stroke-linejoin:round;stroke-miterlimit:10;" d="M181.914,226.882
				c0,0,3.848,8.551,10.048,13.468c6.2,4.917,10.048,4.917,10.048,4.917s-1.069,6.627,1.069,9.834
				c2.138,3.207,17.102,26.081,19.454,28.005c2.352,1.924,8.124,1.71,12.185,1.496c4.062-0.214,5.131-2.352,2.779-6.413
				c-2.352-4.062-8.551-5.344-8.551-5.344s-2.352-7.91-0.214-15.606c2.138-7.696,4.489-11.971,10.261-14.323
				c5.772-2.351,28.86-2.138,30.356-0.214c1.496,1.924,6.2,9.193,16.888,12.185c10.689,2.993,16.675,1.496,19.881,4.489
				c3.207,2.993,2.565,9.62,7.482,10.261c4.917,0.641,7.696-2.993,6.199-9.406c-1.496-6.413-5.772-10.048-11.544-16.033
				c-5.772-5.986-14.323-13.468-16.889-20.095c-2.565-6.627-11.971-30.784-18.812-45.535c-6.841-14.751-13.895-40.618-44.038-54.086
				s-66.271,1.924-76.96,18.599c-10.689,16.675-14.964,36.128-9.834,59.003c5.131,22.874,11.33,20.95,11.758,33.99
				c0.428,13.04,0.214,22.447,7.482,33.563c7.268,11.116,10.903,13.468,14.323,13.896c3.42,0.428,8.551,0.855,9.192-1.71
				c0.641-2.565,0.428-7.055-2.138-8.765c-2.565-1.71-5.344,0.214-7.696-3.42c-2.352-3.634-5.345-19.24-1.069-24.798
				C177.852,239.281,181.486,235.86,181.914,226.882z"/>
			<path style="fill:none;stroke:#263238;stroke-linecap:round;stroke-linejoin:round;stroke-miterlimit:10;" d="M177.104,210.268
				c-0.2-1.104-0.359-2.186-0.462-3.216"/>
			<path style="fill:none;stroke:#263238;stroke-linecap:round;stroke-linejoin:round;stroke-miterlimit:10;" d="M181.914,226.882
				c0,0-2.461-6.402-4.062-13.085"/>
		</g>
		<g>
			<path style="fill:none;stroke:#263238;stroke-linecap:round;stroke-linejoin:round;stroke-miterlimit:10;" d="M257.267,250.449
				c0,0,4.114,2.259,8.055,0.485c3.942-1.774,4.17-4.583,4.17-4.583s-6.103-2.594-8.731-1.24
				C257.558,246.761,257.267,250.449,257.267,250.449z"/>
			<path style="fill:#92E3A9;stroke:#263238;stroke-linecap:round;stroke-linejoin:round;stroke-miterlimit:10;" d="M214.36,208.727
				c0,0-3.363,17.027-2.733,19.97c0.631,2.943,5.886-2.102,5.886-2.102s0.421,14.505,4.414,16.186
				c3.994,1.682,4.625-1.261,4.625-1.261s3.363,2.943,7.988,2.943c4.625,0,9.039,0,10.51,2.523c1.471,2.522,4.204,4.835,8.198,4.625
				c3.994-0.21,7.778-4.204,9.459-4.414c1.682-0.21,4.414,1.682,8.619-0.21c4.204-1.892,5.676-8.408,6.727-8.829
				c1.051-0.42,7.147-3.994,10.3-3.574c3.153,0.42,7.357-9.459,7.357-9.459s2.733,2.523,3.784-0.42
				c1.051-2.943,0.42-14.084,0.42-14.084s4.625,2.522,4.204-2.523c-0.421-5.045-7.988-15.976-7.988-15.976
				s-7.778-13.243-31.531-15.766c0,0-19.76-1.682-32.793,7.568C218.774,193.172,214.36,208.727,214.36,208.727z"/>
			<g>
				<path style="fill:#92E3A9;stroke:#263238;stroke-linecap:round;stroke-linejoin:round;stroke-miterlimit:10;" d="
					M233.068,191.911c0,0-3.153-3.994-11.561-4.625c-8.408-0.631-20.762-0.685-20.366,3.021
					c0.396,3.706,19.133,20.938,19.133,20.938"/>
				<path style="fill:#FFFFFF;stroke:#263238;stroke-linecap:round;stroke-linejoin:round;stroke-miterlimit:10;" d="
					M201.141,190.307c0,0,7.753-0.919,19.735,3.496s10.069,8.186,8.198,11.351c-2.733,4.625-7.96,6.301-8.801,6.091
					C219.433,211.034,200.745,198.373,201.141,190.307z"/>
			</g>
			<g>
				<path style="fill:#92E3A9;stroke:#263238;stroke-linecap:round;stroke-linejoin:round;stroke-miterlimit:10;" d="
					M267.481,186.598c0,0,1.205-4.944,8.588-9.017c7.383-4.073,18.593-9.264,19.775-5.73c1.182,3.534-8.682,27.001-8.682,27.001"/>
				<path style="fill:#FFFFFF;stroke:#263238;stroke-linecap:round;stroke-linejoin:round;stroke-miterlimit:10;" d="
					M295.844,171.851c0,0-7.432,2.392-16.49,11.393s-5.748,11.634-2.73,13.734c4.41,3.068,9.86,2.416,10.537,1.875
					C287.839,198.311,299.561,179.02,295.844,171.851z"/>
			</g>
			<path style="fill:#FFFFFF;" d="M288.119,233.445c-0.887-13.781-13.342-11.811-14.819-9.678c-1.588,2.294-3.529,1.588-4.097-2.309
				c-0.568-3.897-12.311-14.451-16.192-10.217c-3.881,4.234-7.057,13.585-5.469,16.055c1.588,2.47-0.529,4.234-2.823,4.058
				c-2.294-0.176-6.528,1.059-8.821,6.528c-1.469,3.503-0.695,4.903,0.052,5.46c4.087,0.024,7.78,0.255,9.1,2.519
				c1.471,2.522,4.204,4.835,8.198,4.625c3.994-0.21,7.778-4.204,9.459-4.414c1.682-0.21,4.414,1.682,8.619-0.21
				c4.204-1.892,5.676-8.408,6.727-8.829C279.079,236.621,284.909,233.214,288.119,233.445z"/>
			<path style="fill:none;stroke:#263238;stroke-width:3;stroke-linecap:round;stroke-linejoin:round;stroke-miterlimit:10;" d="
				M240.239,225.922c-1.014-2.897,0.535-6.081,7.549-5.895"/>
			<path style="fill:none;stroke:#263238;stroke-width:3;stroke-linecap:round;stroke-linejoin:round;stroke-miterlimit:10;" d="
				M262.988,217.031c0,0,7.039-6.597,10.704,0"/>
			<g>
				
					<line style="fill:none;stroke:#263238;stroke-linecap:round;stroke-linejoin:round;stroke-miterlimit:10;" x1="248.756" y1="242.41" x2="235.163" y2="247.507"/>
				
					<line style="fill:none;stroke:#263238;stroke-linecap:round;stroke-linejoin:round;stroke-miterlimit:10;" x1="247.623" y1="245.053" x2="241.582" y2="249.962"/>
				
					<line style="fill:none;stroke:#263238;stroke-linecap:round;stroke-linejoin:round;stroke-miterlimit:10;" x1="248.189" y1="246.563" x2="244.225" y2="253.737"/>
			</g>
			<g>
				
					<line style="fill:none;stroke:#263238;stroke-linecap:round;stroke-linejoin:round;stroke-miterlimit:10;" x1="271.13" y1="238.747" x2="285.647" y2="238.833"/>
				
					<line style="fill:none;stroke:#263238;stroke-linecap:round;stroke-linejoin:round;stroke-miterlimit:10;" x1="273.107" y1="240.835" x2="280.472" y2="243.354"/>
				
					<line style="fill:none;stroke:#263238;stroke-linecap:round;stroke-linejoin:round;stroke-miterlimit:10;" x1="273.097" y1="242.448" x2="279.296" y2="247.81"/>
			</g>
			<g>
				<path style="fill:#263238;" d="M271.4,227.099c-1.207,1.983-3.11,3.029-4.251,2.334c-1.141-0.694-1.086-2.865,0.121-4.848
					c1.207-1.983,3.11-3.029,4.251-2.334C272.661,222.945,272.607,225.115,271.4,227.099z"/>
				<path style="fill:#263238;" d="M246.098,232.061c1.811,1.454,3.956,1.788,4.792,0.747c0.836-1.041,0.046-3.063-1.765-4.517
					c-1.811-1.454-3.956-1.788-4.792-0.747C243.497,228.585,244.287,230.607,246.098,232.061z"/>
				<path style="fill:#92E3A9;stroke:#263238;stroke-linecap:round;stroke-linejoin:round;stroke-miterlimit:10;" d="
					M264.154,235.489c-0.103-1.278-1.661-1.484-2.931-1.31c-2.018,0.278-5.162,0.942-5.408,2.402
					c-0.365,2.164,2.493,4.84,5.388,4.266C263.178,240.457,264.335,237.717,264.154,235.489z"/>
				
					<line style="fill:none;stroke:#263238;stroke-linecap:round;stroke-linejoin:round;stroke-miterlimit:10;" x1="261.203" y1="240.848" x2="261.77" y2="244.839"/>
			</g>
		</g>
	</g>
</g>
<g id="Picture_1">
	<g>
		<polygon style="fill:#263238;" points="149.039,219.59 178.582,283.533 155.131,283.533 147.115,240.111 		"/>
		<polygon style="fill:#263238;" points="149.527,283.629 81.689,283.629 95.567,197.545 163.405,197.545 		"/>
		<polygon style="fill:#CFCFCF;stroke:#263238;stroke-linecap:round;stroke-linejoin:round;stroke-miterlimit:10;" points="
			146.321,283.629 78.483,283.629 92.36,197.545 160.199,197.545 		"/>
		<g>
			<polygon style="fill:#FFFFFF;stroke:#263238;stroke-linecap:round;stroke-linejoin:round;stroke-miterlimit:10;" points="
				139.434,272.642 88.912,272.642 99.248,208.532 149.769,208.532 			"/>
			<path style="fill:#92E3A9;" d="M123.992,227.744c-0.052-0.581-0.108-1.068-0.142-1.393c-0.389-3.775-1.734-7.807-4.924-10.146
				c-4.128-3.027-6.88-3.302-6.88-3.302l0.826,7.705l-7.98-1.926v7.43l-5.229-2.752c0,0-1.376,4.128,4.128,8.806
				c5.502,4.677,18.428,2.753,18.44,2.751C124.36,234.503,124.217,230.252,123.992,227.744z"/>
			<path style="fill:#92E3A9;" d="M117.549,246.331c-0.11-0.407-0.212-0.747-0.277-0.974c-0.754-2.64-2.222-5.343-4.791-6.606
				c-3.324-1.635-5.319-1.482-5.319-1.482l1.563,5.385l-5.929-0.363l0.94,5.293l-4.073-1.299c0,0-0.458,3.115,4.054,5.752
				c4.511,2.636,13.477-0.369,13.485-0.372C118.666,251.1,118.026,248.089,117.549,246.331z"/>
			<path style="fill:#92E3A9;" d="M131.035,250.604c0,0-3.027-6.329-0.275-18.163c2.752-11.833,7.705-18.988,7.705-18.988
				s1.651,1.101,0.826,18.988c-0.826,17.887-4.678,25.868-4.678,25.868L131.035,250.604z"/>
			<path style="fill:#92E3A9;" d="M132.962,265.739c0,0-2.202-4.678-8.531-6.329c-6.329-1.651-22.841,0.275-22.841,0.275
				s4.403,5.779,16.787,8.531S132.962,265.739,132.962,265.739z"/>
			<path style="fill:#FFFFFF;stroke:#263238;stroke-linecap:round;stroke-linejoin:round;stroke-miterlimit:10;" d="
				M117.202,251.664c0,0,12.458,4.169,18.237,12.975"/>
			<path style="fill:#FFFFFF;stroke:#263238;stroke-linecap:round;stroke-linejoin:round;stroke-miterlimit:10;" d="
				M122.232,234.917c-0.456,0.2,14.974,34.176,17.202,37.725"/>
		</g>
	</g>
</g>
<g id="Furniture">
	<g>
		<polyline style="fill:#FFFFFF;stroke:#263238;stroke-linecap:round;stroke-linejoin:round;stroke-miterlimit:10;" points="
			79.043,460.197 79.043,294.507 407.258,294.507 407.258,462.404 		"/>
		<rect x="79.043" y="294.507" style="fill:#263238;" width="328.215" height="13.519"/>
		<g>
			
				<rect x="97.057" y="314.366" style="fill:#FFFFFF;stroke:#263238;stroke-linecap:round;stroke-linejoin:round;stroke-miterlimit:10;" width="289.709" height="66.198"/>
			<circle style="fill:#263238;" cx="244.67" cy="348.569" r="6.62"/>
		</g>
		<g>
			
				<rect x="97.057" y="391.175" style="fill:#FFFFFF;stroke:#263238;stroke-linecap:round;stroke-linejoin:round;stroke-miterlimit:10;" width="289.709" height="66.198"/>
			<circle style="fill:#263238;" cx="244.67" cy="425.377" r="6.62"/>
		</g>
		
			<rect x="60.153" y="284.026" style="fill:#FFFFFF;stroke:#263238;stroke-linecap:round;stroke-linejoin:round;stroke-miterlimit:10;" width="361.863" height="16.549"/>
	</g>
	<path style="fill:#263238;" d="M33.619,146.214"/>
</g>
<g id="Vase">
	<g>
		<path style="fill:#FFFFFF;stroke:#263238;stroke-linecap:round;stroke-linejoin:round;stroke-miterlimit:10;" d="M386.212,397.001
			c0.155,1.133-13.361,3.919-30.19,6.223c-16.828,2.304-30.596,3.253-30.751,2.119c-0.155-1.133,13.361-3.919,30.19-6.223
			C372.289,396.817,386.056,395.868,386.212,397.001z"/>
		<path style="fill:#92E3A9;stroke:#263238;stroke-miterlimit:10;" d="M338.944,398.121c0,0-3.005,10.905-11.276,24.406
			c-8.271,13.5-21.522,34.429-22.556,40.567c-1.034,6.138,2.922-5.453,20.861-20.096c18.204-14.86,19.508-49.144,19.508-49.144
			L338.944,398.121z"/>
		<g>
			<path style="fill:none;stroke:#263238;stroke-width:2;stroke-linecap:round;stroke-linejoin:round;stroke-miterlimit:10;" d="
				M348.056,393.501c0,0,4.892,16.571-0.931,42.479c-5.823,25.908-7.306,36.98-7.306,36.98"/>
			<path style="fill:none;stroke:#263238;stroke-width:2;stroke-linecap:round;stroke-linejoin:round;stroke-miterlimit:10;" d="
				M354.058,390.805c0,0,8.746,31.035,15.09,41.785c6.344,10.75,7.85,13.542,7.85,13.542"/>
			<path style="fill:#92E3A9;stroke:#263238;stroke-miterlimit:10;" d="M369.148,432.59c0,0-5.83,3.02-4.325,12.211
				c2.282,13.93,17.451,15.226,17.451,15.226l1.704-3.981l4.516,0.131c0,0,0.697-11.339-5.245-19.146
				C377.307,429.224,369.148,432.59,369.148,432.59z"/>
			<path style="fill:#92E3A9;stroke:#263238;stroke-miterlimit:10;" d="M343.787,449.929c0,0-3.931-1.336-13.492,8.218
				c-9.561,9.554-7.814,25.056-7.814,25.056l11.687-4.973l5.271,5.65l6.436-5.004l9.051,5.882
				C354.926,484.758,361.671,462.847,343.787,449.929z"/>
		</g>
		<path style="fill:#92E3A9;stroke:#263238;stroke-miterlimit:10;" d="M347.036,389.807c0,0,4.005,10.579,5.288,26.36
			c1.282,15.781,2.924,40.497,5.709,46.063c2.785,5.567-0.856-6.127,4.995-28.532c5.937-22.737-13.23-51.193-13.23-51.193
			L347.036,389.807z"/>
		<path style="fill:#92E3A9;stroke:#263238;stroke-miterlimit:10;" d="M355.794,396.667c0,0,9.717,5.791,20.538,17.349
			c10.821,11.558,27.482,29.888,33.125,32.514c5.644,2.626-4.482-4.264-13.839-25.446c-9.496-21.495-42.204-31.851-42.204-31.851
			L355.794,396.667z"/>
		<g>
			<path style="fill:#263238;" d="M324.925,405.35l0.355-0.049c0.164-1.158,13.55-3.905,30.18-6.181
				c16.278-2.228,29.691-3.189,30.691-2.224c-5.173-5.792-8.901-12.407-11.572-18.679c-4.308-10.117-3.446-21.595,1.757-31.282
				c5.448-10.145,7.861-23.095,5.996-36.72c-3.905-28.524-25.066-49.184-47.266-46.146c-22.199,3.039-37.03,28.626-33.125,57.15
				c2.025,14.794,8.694,27.467,17.741,35.818c9.021,8.327,12.922,20.949,10.421,32.967
				C329.047,395.078,327.408,400.32,324.925,405.35z"/>
			<path style="opacity:0.3;fill:#FFFFFF;" d="M364.229,285.036c1.789,6.773-2.393,13.751-9.34,15.585
				c-6.947,1.834-14.028-2.169-15.817-8.942c-1.789-6.773,2.393-13.751,9.34-15.585
				C355.359,274.259,362.441,278.263,364.229,285.036z"/>
			<path style="fill:#FFFFFF;" d="M354.268,274.547c0.833,3.153-1.114,6.402-4.348,7.256c-3.234,0.854-6.531-1.01-7.363-4.163
				c-0.833-3.153,1.114-6.402,4.348-7.256S353.435,271.394,354.268,274.547z"/>
			<path style="fill:#FFFFFF;stroke:#263238;stroke-linecap:round;stroke-linejoin:round;stroke-miterlimit:10;" d="
				M386.191,396.964l0.015-0.002c-0.015-0.017-0.029-0.035-0.044-0.052C386.178,396.927,386.183,396.945,386.191,396.964z"/>
		</g>
	</g>
</g>
</svg>
